<svg xmlns="http://www.w3.org/2000/svg" width="275" height="275" version="1.0">
<rect x="0" y="0" width="25" height="25" fill="#ffffff" stroke="black"/>
<rect x="25" y="0" width="25" height="25" fill="#ffffff" stroke="black"/>
<rect x="50" y="0" width="25" height="25" fill="#ffffff" stroke="black"/>
<rect x="75" y="0" width="25" height="25" fill="#f0ddc9" stroke="black"/>
<text x="87.500000" y="12.500000" dominant-baseline="central" text-anchor="middle">4</text>
<rect x="100" y="0" width="25" height="25" fill="#ffffff" stroke="black"/>
<rect x="125" y="0" width="25" height="25" fill="#ebb2e0" stroke="black"/>
<text x="137.500000" y="12.500000" dominant-baseline="central" text-anchor="middle">6</text>
<rect x="150" y="0" width="25" height="25" fill="#ffffff" stroke="black"/>
<rect x="175" y="0" width="25" height="25" fill="#ffffff" stroke="black"/>
<rect x="200" y="0" width="25" height="25" fill="#ffffff" stroke="black"/>
<rect x="225" y="0" width="25" height="25" fill="#88b389" stroke="black"/>
<text x="237.500000" y="12.500000" dominant-baseline="central" text-anchor="middle">10</text>
<rect x="250" y="0" width="25" height="25" fill="#a875d1" stroke="black"/>
<text x="262.500000" y="12.500000" dominant-baseline="central" text-anchor="middle">11</text>
<rect x="0" y="25" width="25" height="25" fill="#ffffff" stroke="black"/>
<rect x="25" y="25" width="25" height="25" fill="#ffffff" stroke="black"/>
<rect x="50" y="25" width="25" height="25" fill="#ffffff" stroke="black"/>
<rect x="75" y="25" width="25" height="25" fill="#9ce6be" stroke="black"/>
<text x="87.500000" y="37.500000" dominant-baseline="central" text-anchor="middle">3</text>
<rect x="100" y="25" width="25" height="25" fill="#ebb2e0" stroke="black"/>
<text x="112.500000" y="37.500000" dominant-baseline="central" text-anchor="middle">6</text>
<rect x="125" y="25" width="25" height="25" fill="#ffffff" stroke="black"/>
<rect x="150" y="25" width="25" height="25" fill="#88b389" stroke="black"/>
<text x="162.500000" y="37.500000" dominant-baseline="central" text-anchor="middle">10</text>
<rect x="175" y="25" width="25" height="25" fill="#ffffff" stroke="black"/>
<rect x="200" y="25" width="25" height="25" fill="#a875d1" stroke="black"/>
<text x="212.500000" y="37.500000" dominant-baseline="central" text-anchor="middle">11</text>
<rect x="225" y="25" width="25" height="25" fill="#ffffff" stroke="black"/>
<rect x="250" y="25" width="25" height="25" fill="#ffffff" stroke="black"/>
<rect x="0" y="50" width="25" height="25" fill="#ffffff" stroke="black"/>
<rect x="25" y="50" width="25" height="25" fill="#ffffff" stroke="black"/>
<rect x="50" y="50" width="25" height="25" fill="#ebb2e0" stroke="black"/>
<text x="62.500000" y="62.500000" dominant-baseline="central" text-anchor="middle">6</text>
<rect x="75" y="50" width="25" height="25" fill="#ffffff" stroke="black"/>
<rect x="100" y="50" width="25" height="25" fill="#ffffff" stroke="black"/>
<rect x="125" y="50" width="25" height="25" fill="#ffffff" stroke="black"/>
<rect x="150" y="50" width="25" height="25" fill="#ffffff" stroke="black"/>
<rect x="175" y="50" width="25" height="25" fill="#ffffff" stroke="black"/>
<rect x="200" y="50" width="25" height="25" fill="#faacb2" stroke="black"/>
<text x="212.500000" y="62.500000" dominant-baseline="central" text-anchor="middle">7</text>
<rect x="225" y="50" width="25" height="25" fill="#ffffff" stroke="black"/>
<rect x="250" y="50" width="25" height="25" fill="#f4f5c1" stroke="black"/>
<text x="262.500000" y="62.500000" dominant-baseline="central" text-anchor="middle">9</text>
<rect x="0" y="75" width="25" height="25" fill="#ffffff" stroke="black"/>
<rect x="25" y="75" width="25" height="25" fill="#ffffff" stroke="black"/>
<rect x="50" y="75" width="25" height="25" fill="#f0ddc9" stroke="black"/>
<text x="62.500000" y="87.500000" dominant-baseline="central" text-anchor="middle">4</text>
<rect x="75" y="75" width="25" height="25" fill="#ffffff" stroke="black"/>
<rect x="100" y="75" width="25" height="25" fill="#ffffff" stroke="black"/>
<rect x="125" y="75" width="25" height="25" fill="#ffffff" stroke="black"/>
<rect x="150" y="75" width="25" height="25" fill="#ffffff" stroke="black"/>
<rect x="175" y="75" width="25" height="25" fill="#ffffff" stroke="black"/>
<rect x="200" y="75" width="25" height="25" fill="#9cace6" stroke="black"/>
<text x="212.500000" y="87.500000" dominant-baseline="central" text-anchor="middle">5</text>
<rect x="225" y="75" width="25" height="25" fill="#f4f5c1" stroke="black"/>
<text x="237.500000" y="87.500000" dominant-baseline="central" text-anchor="middle">9</text>
<rect x="250" y="75" width="25" height="25" fill="#ffffff" stroke="black"/>
<rect x="0" y="100" width="25" height="25" fill="#ebb2e0" stroke="black"/>
<text x="12.500000" y="112.500000" dominant-baseline="central" text-anchor="middle">6</text>
<rect x="25" y="100" width="25" height="25" fill="#88b389" stroke="black"/>
<text x="37.500000" y="112.500000" dominant-baseline="central" text-anchor="middle">10</text>
<rect x="50" y="100" width="25" height="25" fill="#ffffff" stroke="black"/>
<rect x="75" y="100" width="25" height="25" fill="#ffffff" stroke="black"/>
<rect x="100" y="100" width="25" height="25" fill="#ffffff" stroke="black"/>
<rect x="125" y="100" width="25" height="25" fill="#ffffff" stroke="black"/>
<rect x="150" y="100" width="25" height="25" fill="#ffffff" stroke="black"/>
<rect x="175" y="100" width="25" height="25" fill="#a875d1" stroke="black"/>
<text x="187.500000" y="112.500000" dominant-baseline="central" text-anchor="middle">11</text>
<rect x="200" y="100" width="25" height="25" fill="#ffffff" stroke="black"/>
<rect x="225" y="100" width="25" height="25" fill="#ffffff" stroke="black"/>
<rect x="250" y="100" width="25" height="25" fill="#ffffff" stroke="black"/>
<rect x="0" y="125" width="25" height="25" fill="#ffffff" stroke="black"/>
<rect x="25" y="125" width="25" height="25" fill="#ffffff" stroke="black"/>
<rect x="50" y="125" width="25" height="25" fill="#9ce6be" stroke="black"/>
<text x="62.500000" y="137.500000" dominant-baseline="central" text-anchor="middle">3</text>
<rect x="75" y="125" width="25" height="25" fill="#ffffff" stroke="black"/>
<rect x="100" y="125" width="25" height="25" fill="#ffffff" stroke="black"/>
<rect x="125" y="125" width="25" height="25" fill="#9cace6" stroke="black"/>
<text x="137.500000" y="137.500000" dominant-baseline="central" text-anchor="middle">5</text>
<rect x="150" y="125" width="25" height="25" fill="#ffffff" stroke="black"/>
<rect x="175" y="125" width="25" height="25" fill="#f4f5c1" stroke="black"/>
<text x="187.500000" y="137.500000" dominant-baseline="central" text-anchor="middle">9</text>
<rect x="200" y="125" width="25" height="25" fill="#ffffff" stroke="black"/>
<rect x="225" y="125" width="25" height="25" fill="#ffffff" stroke="black"/>
<rect x="250" y="125" width="25" height="25" fill="#ffffff" stroke="black"/>
<rect x="0" y="150" width="25" height="25" fill="#9ce6be" stroke="black"/>
<text x="12.500000" y="162.500000" dominant-baseline="central" text-anchor="middle">3</text>
<rect x="25" y="150" width="25" height="25" fill="#f0ddc9" stroke="black"/>
<text x="37.500000" y="162.500000" dominant-baseline="central" text-anchor="middle">4</text>
<rect x="50" y="150" width="25" height="25" fill="#ffffff" stroke="black"/>
<rect x="75" y="150" width="25" height="25" fill="#ffffff" stroke="black"/>
<rect x="100" y="150" width="25" height="25" fill="#9cace6" stroke="black"/>
<text x="112.500000" y="162.500000" dominant-baseline="central" text-anchor="middle">5</text>
<rect x="125" y="150" width="25" height="25" fill="#ffffff" stroke="black"/>
<rect x="150" y="150" width="25" height="25" fill="#ffffff" stroke="black"/>
<rect x="175" y="150" width="25" height="25" fill="#faacb2" stroke="black"/>
<text x="187.500000" y="162.500000" dominant-baseline="central" text-anchor="middle">7</text>
<rect x="200" y="150" width="25" height="25" fill="#ffffff" stroke="black"/>
<rect x="225" y="150" width="25" height="25" fill="#ffffff" stroke="black"/>
<rect x="250" y="150" width="25" height="25" fill="#ffcc99" stroke="black"/>
<text x="262.500000" y="162.500000" dominant-baseline="central" text-anchor="middle">8</text>
<rect x="0" y="175" width="25" height="25" fill="#ffffff" stroke="black"/>
<rect x="25" y="175" width="25" height="25" fill="#ffffff" stroke="black"/>
<rect x="50" y="175" width="25" height="25" fill="#ffffff" stroke="black"/>
<rect x="75" y="175" width="25" height="25" fill="#ffffff" stroke="black"/>
<rect x="100" y="175" width="25" height="25" fill="#ffffff" stroke="black"/>
<rect x="125" y="175" width="25" height="25" fill="#ffffff" stroke="black"/>
<rect x="150" y="175" width="25" height="25" fill="#ffffff" stroke="black"/>
<rect x="175" y="175" width="25" height="25" fill="#ed7b7b" stroke="black"/>
<text x="187.500000" y="187.500000" dominant-baseline="central" text-anchor="middle">1</text>
<rect x="200" y="175" width="25" height="25" fill="#89d8e8" stroke="black"/>
<text x="212.500000" y="187.500000" dominant-baseline="central" text-anchor="middle">2</text>
<rect x="225" y="175" width="25" height="25" fill="#ffcc99" stroke="black"/>
<text x="237.500000" y="187.500000" dominant-baseline="central" text-anchor="middle">8</text>
<rect x="250" y="175" width="25" height="25" fill="#ffffff" stroke="black"/>
<rect x="0" y="200" width="25" height="25" fill="#ffffff" stroke="black"/>
<rect x="25" y="200" width="25" height="25" fill="#ffffff" stroke="black"/>
<rect x="50" y="200" width="25" height="25" fill="#ffffff" stroke="black"/>
<rect x="75" y="200" width="25" height="25" fill="#ed7b7b" stroke="black"/>
<text x="87.500000" y="212.500000" dominant-baseline="central" text-anchor="middle">1</text>
<rect x="100" y="200" width="25" height="25" fill="#ffffff" stroke="black"/>
<rect x="125" y="200" width="25" height="25" fill="#89d8e8" stroke="black"/>
<text x="137.500000" y="212.500000" dominant-baseline="central" text-anchor="middle">2</text>
<rect x="150" y="200" width="25" height="25" fill="#f4f5c1" stroke="black"/>
<text x="162.500000" y="212.500000" dominant-baseline="central" text-anchor="middle">9</text>
<rect x="175" y="200" width="25" height="25" fill="#ffffff" stroke="black"/>
<rect x="200" y="200" width="25" height="25" fill="#ffffff" stroke="black"/>
<rect x="225" y="200" width="25" height="25" fill="#ffffff" stroke="black"/>
<rect x="250" y="200" width="25" height="25" fill="#ffffff" stroke="black"/>
<rect x="0" y="225" width="25" height="25" fill="#ffffff" stroke="black"/>
<rect x="25" y="225" width="25" height="25" fill="#ffffff" stroke="black"/>
<rect x="50" y="225" width="25" height="25" fill="#ed7b7b" stroke="black"/>
<text x="62.500000" y="237.500000" dominant-baseline="central" text-anchor="middle">1</text>
<rect x="75" y="225" width="25" height="25" fill="#ffffff" stroke="black"/>
<rect x="100" y="225" width="25" height="25" fill="#89d8e8" stroke="black"/>
<text x="112.500000" y="237.500000" dominant-baseline="central" text-anchor="middle">2</text>
<rect x="125" y="225" width="25" height="25" fill="#ffffff" stroke="black"/>
<rect x="150" y="225" width="25" height="25" fill="#ffcc99" stroke="black"/>
<text x="162.500000" y="237.500000" dominant-baseline="central" text-anchor="middle">8</text>
<rect x="175" y="225" width="25" height="25" fill="#ffffff" stroke="black"/>
<rect x="200" y="225" width="25" height="25" fill="#ffffff" stroke="black"/>
<rect x="225" y="225" width="25" height="25" fill="#ffffff" stroke="black"/>
<rect x="250" y="225" width="25" height="25" fill="#ffffff" stroke="black"/>
<rect x="0" y="250" width="25" height="25" fill="#ed7b7b" stroke="black"/>
<text x="12.500000" y="262.500000" dominant-baseline="central" text-anchor="middle">1</text>
<rect x="25" y="250" width="25" height="25" fill="#89d8e8" stroke="black"/>
<text x="37.500000" y="262.500000" dominant-baseline="central" text-anchor="middle">2</text>
<rect x="50" y="250" width="25" height="25" fill="#ffffff" stroke="black"/>
<rect x="75" y="250" width="25" height="25" fill="#ffffff" stroke="black"/>
<rect x="100" y="250" width="25" height="25" fill="#ffffff" stroke="black"/>
<rect x="125" y="250" width="25" height="25" fill="#ffffff" stroke="black"/>
<rect x="150" y="250" width="25" height="25" fill="#faacb2" stroke="black"/>
<text x="162.500000" y="262.500000" dominant-baseline="central" text-anchor="middle">7</text>
<rect x="175" y="250" width="25" height="25" fill="#ffffff" stroke="black"/>
<rect x="200" y="250" width="25" height="25" fill="#ffffff" stroke="black"/>
<rect x="225" y="250" width="25" height="25" fill="#ffffff" stroke="black"/>
<rect x="250" y="250" width="25" height="25" fill="#ffffff" stroke="black"/>
</svg>
